<svg width="996" height="837" viewBox="0 0 996 837" fill="none" xmlns="http://www.w3.org/2000/svg">
<g clip-path="url(#clip0)">
<g filter="url(#filter0_d)">
<path d="M699.175 98.003C615.642 97.6193 540.565 134.056 489 192.104C437.435 134.056 362.358 97.6194 278.825 98.003C121.966 98.7234 -3.04635 227.812 0.0565346 385.688C3.06588 538.807 127.307 662 280.131 662C286.06 662 291.945 661.816 297.784 661.449C425.136 653.472 552.864 653.472 680.216 661.449C686.054 661.814 691.938 661.998 697.869 662C850.693 662 974.934 538.807 977.943 385.688C981.046 227.812 856.034 98.7234 699.175 98.003Z" fill="url(#paint0_linear)"/>
</g>
<g filter="url(#filter1_i)">
<path d="M296.59 365.481C297.468 368.759 303.65 369.95 310.397 368.142C317.145 366.334 321.903 362.211 321.024 358.934C320.146 355.657 313.965 354.466 307.217 356.274C300.47 358.082 295.712 362.204 296.59 365.481Z" fill="#F27C26"/>
</g>
<path d="M310.268 367.659C306.951 368.548 303.797 368.692 301.387 368.228C298.941 367.756 297.435 366.702 297.073 365.352C296.711 364.002 297.488 362.336 299.371 360.704C301.226 359.098 304.03 357.645 307.347 356.757C310.664 355.868 313.818 355.724 316.227 356.188C318.674 356.659 320.18 357.714 320.542 359.064C320.903 360.413 320.126 362.079 318.243 363.711C316.389 365.318 313.585 366.77 310.268 367.659Z" stroke="#AF4C04"/>
<g filter="url(#filter2_i)">
<path d="M747.363 434.195C757.021 434.55 764.711 438.64 764.539 443.332C764.366 448.023 756.397 451.538 746.738 451.183C737.08 450.828 729.39 446.737 729.562 442.046C729.735 437.355 737.704 433.84 747.363 434.195Z" fill="#AF4C04"/>
</g>
<path d="M734.699 447.799C731.887 446.304 730.265 444.444 730.078 442.565L763.986 443.812C763.661 445.672 761.908 447.407 758.994 448.692C755.856 450.076 751.527 450.859 746.757 450.684C741.986 450.508 737.727 449.41 734.699 447.799ZM764.023 442.812L730.115 441.566C730.44 439.706 732.193 437.971 735.107 436.686C738.245 435.301 742.574 434.519 747.344 434.694C752.115 434.87 756.374 435.968 759.402 437.579C762.214 439.074 763.836 440.933 764.023 442.812Z" stroke="#743100"/>
<g filter="url(#filter3_i)">
<path d="M324.576 423.299C315.607 426.902 306.919 426.291 305.168 421.935C303.418 417.579 309.27 411.127 318.238 407.524C327.206 403.921 335.895 404.531 337.645 408.887C339.395 413.243 333.544 419.696 324.576 423.299Z" fill="#F27C26"/>
</g>
<path d="M330.614 405.72C333.791 405.943 336.028 406.982 336.963 408.623L321.221 414.947L305.478 421.272C305.018 419.441 305.915 417.142 308.054 414.783C310.358 412.243 313.995 409.768 318.425 407.988C322.854 406.208 327.192 405.48 330.614 405.72ZM305.851 422.2L321.593 415.875L337.336 409.551C337.796 411.382 336.899 413.68 334.76 416.039C332.455 418.58 328.819 421.055 324.389 422.835C319.96 424.614 315.622 425.343 312.2 425.103C309.023 424.88 306.786 423.84 305.851 422.2Z" stroke="#AF4C04"/>
<g filter="url(#filter4_i)">
<path d="M726.04 415.365C732.603 422.46 735.13 430.796 731.684 433.984C728.238 437.171 720.124 434.004 713.561 426.909C706.997 419.814 704.471 411.478 707.917 408.291C711.363 405.103 719.477 408.27 726.04 415.365Z" fill="#AF4C04"/>
</g>
<path d="M707.464 415.99C706.54 412.942 706.713 410.481 707.912 409.022L730.954 433.931C729.406 435.013 726.94 434.995 723.973 433.837C720.778 432.589 717.169 430.074 713.928 426.57C710.686 423.065 708.459 419.272 707.464 415.99ZM731.688 433.252L708.647 408.343C710.194 407.261 712.661 407.279 715.628 408.438C718.823 409.685 722.431 412.2 725.673 415.705C728.915 419.209 731.142 423.002 732.137 426.285C733.061 429.332 732.887 431.793 731.688 433.252Z" stroke="#743100"/>
<g filter="url(#filter5_i)">
<path d="M712.392 358.949C719.976 364.94 723.765 372.783 720.855 376.467C717.945 380.15 709.438 378.28 701.854 372.288C694.27 366.297 690.481 358.454 693.391 354.77C696.301 351.087 704.808 352.957 712.392 358.949Z" fill="#AF4C04"/>
</g>
<path d="M694.137 362.447C692.752 359.579 692.542 357.121 693.5 355.494L720.126 376.528C718.765 377.837 716.325 378.201 713.215 377.517C709.865 376.781 705.91 374.855 702.164 371.896C698.418 368.937 695.629 365.535 694.137 362.447ZM720.746 375.743L694.12 354.709C695.481 353.4 697.921 353.036 701.031 353.72C704.381 354.456 708.336 356.382 712.082 359.341C715.828 362.3 718.617 365.702 720.109 368.791C721.494 371.658 721.704 374.116 720.746 375.743Z" stroke="#743100"/>
<g filter="url(#filter6_i)">
<path d="M741.893 378.196C738.644 387.299 732.427 393.399 728.005 391.821C723.584 390.243 722.633 381.585 725.882 372.482C729.13 363.379 735.347 357.279 739.769 358.857C744.19 360.435 745.141 369.093 741.893 378.196Z" fill="#AF4C04"/>
</g>
<path d="M732.736 362.021C735.009 359.791 737.27 358.805 739.118 359.192L727.714 391.15C726.038 390.279 724.912 388.085 724.564 384.919C724.19 381.509 724.748 377.146 726.352 372.65C727.957 368.154 730.287 364.423 732.736 362.021ZM728.656 391.486L740.06 359.528C741.736 360.399 742.862 362.593 743.21 365.759C743.584 369.168 743.026 373.532 741.422 378.028C739.817 382.524 737.487 386.255 735.039 388.657C732.765 390.887 730.504 391.873 728.656 391.486Z" stroke="#743100"/>
<g filter="url(#filter7_i)">
<path d="M351.777 387.573C360.49 383.39 369.2 383.431 371.231 387.663C373.263 391.895 367.846 398.716 359.133 402.899C350.419 407.081 341.709 407.04 339.678 402.808C337.646 398.576 343.063 391.755 351.777 387.573Z" fill="#F17C27"/>
</g>
<path d="M346.902 405.509C343.717 405.494 341.417 404.603 340.376 403.028L370.966 388.345C371.544 390.143 370.8 392.495 368.82 394.989C366.687 397.675 363.22 400.382 358.916 402.448C354.613 404.514 350.332 405.525 346.902 405.509ZM370.533 387.444L339.943 402.126C339.365 400.329 340.109 397.977 342.089 395.483C344.222 392.797 347.689 390.089 351.993 388.023C356.296 385.958 360.578 384.947 364.007 384.962C367.192 384.977 369.493 385.868 370.533 387.444Z" stroke="#AF4C04"/>
<g filter="url(#filter8_i)">
<path d="M347.35 473.32C353.619 465.964 361.597 462.468 365.17 465.513C368.743 468.558 366.558 476.99 360.289 484.346C354.021 491.702 346.042 495.198 342.469 492.153C338.896 489.108 341.081 480.676 347.35 473.32Z" fill="#F17C26"/>
</g>
<path d="M350.168 491.692C347.251 492.97 344.787 493.089 343.196 492.07L365.204 466.244C366.462 467.653 366.736 470.104 365.937 473.187C365.076 476.508 363.005 480.388 359.909 484.022C356.813 487.655 353.309 490.316 350.168 491.692ZM364.443 465.596L342.435 491.422C341.178 490.013 340.904 487.562 341.703 484.479C342.564 481.158 344.635 477.278 347.731 473.644C350.827 470.011 354.33 467.35 357.472 465.974C360.389 464.696 362.853 464.577 364.443 465.596Z" stroke="#AF4C04"/>
<g filter="url(#filter9_i)">
<path d="M326.568 494.635C335.718 491.523 344.361 492.603 345.873 497.047C347.384 501.492 341.192 507.618 332.042 510.73C322.891 513.842 314.248 512.762 312.737 508.317C311.225 503.873 317.418 497.747 326.568 494.635Z" fill="#F17C26"/>
</g>
<path d="M319.587 511.861C316.426 511.466 314.249 510.307 313.404 508.619L345.528 497.693C345.888 499.547 344.868 501.793 342.604 504.033C340.165 506.445 336.4 508.719 331.881 510.256C327.361 511.793 322.99 512.286 319.587 511.861ZM345.206 496.746L313.082 507.672C312.722 505.818 313.741 503.572 316.006 501.332C318.444 498.92 322.209 496.645 326.729 495.108C331.248 493.571 335.619 493.078 339.023 493.504C342.183 493.899 344.361 495.058 345.206 496.746Z" stroke="#AF4C04"/>
<g filter="url(#filter10_i)">
<path d="M743.933 310.914C744.552 307.988 740.171 304.583 734.148 303.308C728.125 302.033 722.74 303.372 722.121 306.297C721.502 309.223 725.883 312.628 731.906 313.903C737.929 315.177 743.314 313.839 743.933 310.914Z" fill="#AF4C04"/>
</g>
<path d="M734.045 303.797C736.999 304.423 739.526 305.566 741.225 306.887C742.954 308.231 743.692 309.64 743.444 310.81C743.196 311.98 741.951 312.97 739.825 313.498C737.737 314.017 734.964 314.039 732.009 313.413C729.055 312.788 726.528 311.645 724.83 310.324C723.101 308.98 722.363 307.571 722.61 306.401C722.858 305.231 724.104 304.241 726.229 303.713C728.317 303.194 731.091 303.172 734.045 303.797Z" stroke="#743100"/>
<path d="M743.562 310.419C739.936 308.165 735.754 306.965 731.485 306.954C727.215 306.943 723.027 308.122 719.39 310.358C708.452 317.305 705.581 332.48 708.393 345.129C711.205 357.778 718.397 368.934 723.766 380.727C730.978 396.567 734.978 414.33 732.093 431.494C729.208 448.658 718.676 465.029 702.828 472.223C688.119 478.901 671.138 477.15 655.094 475.266" stroke="#743100" stroke-miterlimit="10"/>
<path d="M298.004 366.409C301.032 363.399 304.839 361.292 308.997 360.325C313.155 359.357 317.501 359.567 321.547 360.931C333.764 365.249 339.963 379.394 340.059 392.352C340.155 405.309 335.647 417.793 333.058 430.49C329.58 447.544 329.664 465.751 336.324 481.831C342.984 497.912 356.917 511.505 373.974 514.963C389.807 518.174 405.963 512.66 421.176 507.227" stroke="#AF4C04" stroke-miterlimit="10"/>
<g filter="url(#filter11_i)">
<path d="M700.481 250.96L697.731 271.13L680.731 395.59L652.891 599.41L645.921 650.44C645.39 654.335 643.465 657.907 640.503 660.492C637.541 663.077 633.742 664.501 629.811 664.5H444.161C440.235 664.501 436.442 663.082 433.481 660.506C430.52 657.929 428.591 654.368 428.051 650.48L420.961 599.41L392.651 395.59L375.351 271.04L372.571 251C372.25 248.698 372.426 246.354 373.088 244.126C373.75 241.898 374.882 239.837 376.408 238.084C377.934 236.331 379.818 234.925 381.934 233.962C384.049 232.998 386.346 232.5 388.671 232.5H684.371C686.691 232.501 688.985 232.999 691.098 233.959C693.21 234.92 695.093 236.322 696.619 238.071C698.145 239.819 699.279 241.874 699.945 244.097C700.611 246.32 700.794 248.66 700.481 250.96Z" fill="url(#paint1_linear)"/>
</g>
<g filter="url(#filter12_i)">
<path d="M665.741 178.5H408.261C399.281 178.5 392.001 185.78 392.001 194.76V216.24C392.001 225.22 399.281 232.5 408.261 232.5H665.741C674.721 232.5 682.001 225.22 682.001 216.24V194.76C682.001 185.78 674.721 178.5 665.741 178.5Z" fill="#2F2E41"/>
</g>
<path opacity="0.1" d="M682.001 204.02V216.24C682.001 220.552 680.288 224.688 677.238 227.737C674.189 230.787 670.053 232.5 665.741 232.5H408.261C403.948 232.5 399.813 230.787 396.763 227.737C393.714 224.688 392.001 220.552 392.001 216.24V204.05C488.449 213.24 585.554 213.23 682.001 204.02V204.02Z" fill="black"/>
<g filter="url(#filter13_i)">
<path d="M723.742 259.5C599.616 273.049 474.385 273.049 350.26 259.5C345.948 259.5 341.812 257.787 338.763 254.738C335.714 251.689 334.001 247.553 334.001 243.241V221.759C334.001 217.447 335.714 213.311 338.763 210.262C341.812 207.213 345.948 205.5 350.26 205.5C474.287 220.749 599.715 220.749 723.742 205.5C728.054 205.5 732.189 207.213 735.239 210.262C738.288 213.311 740.001 217.447 740.001 221.759V243.241C740.001 247.553 738.288 251.689 735.239 254.738C732.189 257.787 728.054 259.5 723.742 259.5V259.5Z" fill="url(#paint2_linear)"/>
</g>
<g filter="url(#filter14_d)">
<path d="M126.501 665H817.501" stroke="#EAE8FC" stroke-miterlimit="10"/>
</g>
<path d="M183.348 572.731V600.862L197.794 617.588C197.794 617.588 203.876 615.307 203.876 600.102L206.157 578.053L183.348 572.731Z" fill="#EEBB99"/>
<path d="M197.794 600.862C197.794 600.862 174.225 584.896 173.464 579.574C172.704 574.252 139.251 549.922 144.573 565.128C149.895 580.334 166.622 587.177 166.622 587.177C166.622 587.177 179.547 622.15 190.951 621.39C202.355 620.629 202.355 606.184 197.794 600.862Z" fill="#EBB38E"/>
<path d="M211.783 771.64L214.064 785.325L201.899 782.284V771.64H211.783Z" fill="#3F3D56"/>
<path d="M209.502 779.243C209.502 779.243 195.443 770.913 194.87 774.698C194.297 778.483 188.214 792.928 185.173 794.449C182.132 795.969 178.331 812.696 185.173 811.935C190.473 811.347 209.911 801.18 218.407 796.625C219.453 796.062 220.243 795.118 220.614 793.99C220.986 792.861 220.91 791.633 220.404 790.558C219.905 789.637 219.561 788.639 219.386 787.606C219.386 786.086 209.502 779.243 209.502 779.243Z" fill="#2F2E41"/>
<path d="M216.345 624.905C216.345 624.905 160.844 650.754 166.166 670.522C171.488 690.289 191.255 773.921 191.255 773.921C191.255 773.921 213.304 779.243 214.824 773.921C216.345 768.599 200.379 685.728 201.9 682.686C203.42 679.645 231.551 659.878 231.551 659.878L289.333 635.549L265.003 612.74L216.345 624.905Z" fill="#2F2E41"/>
<path d="M174.529 776.202L167.686 793.689L179.851 799.011L187.454 785.325L174.529 776.202Z" fill="#3F3D56"/>
<path d="M215.585 500.217C215.585 500.217 222.427 509.341 217.105 513.902C211.783 518.464 215.585 535.191 215.585 535.191L222.427 554.198L249.798 548.876V517.704L248.277 502.498C248.277 502.498 234.592 489.573 233.071 479.689C231.551 469.806 215.585 500.217 215.585 500.217Z" fill="#EBB38E"/>
<path d="M261.202 618.822C261.202 618.822 225.468 658.357 225.468 659.878C225.468 661.398 206.461 692.57 206.461 692.57L169.207 775.442C169.207 775.442 183.653 795.209 189.735 793.689C195.817 792.168 239.154 703.975 239.154 703.975C239.154 703.975 246.756 684.207 267.284 679.645C287.812 675.084 303.778 659.118 296.175 640.871C288.572 622.624 261.202 618.822 261.202 618.822Z" fill="#2F2E41"/>
<path d="M215.585 505.539C229.021 505.539 239.914 494.647 239.914 481.21C239.914 467.773 229.021 456.881 215.585 456.881C202.148 456.881 191.255 467.773 191.255 481.21C191.255 494.647 202.148 505.539 215.585 505.539Z" fill="#EEBB99"/>
<path d="M216.345 520.745C216.345 520.745 219.386 538.232 222.427 539.752C225.468 541.273 227.749 546.595 234.592 538.992C241.435 531.389 247.517 516.183 247.517 516.183L271.086 545.074L273.367 624.905C273.367 624.905 246.757 618.062 238.393 624.905C230.03 631.747 211.783 630.987 211.783 630.987L215.585 615.781L212.544 589.931L213.304 566.362L214.064 549.636L216.345 520.745Z" fill="#F2F2F2"/>
<path d="M219.023 507.948C219.023 507.948 208.742 513.142 207.982 516.183C207.222 519.224 193.536 525.307 193.536 525.307C193.536 525.307 188.214 530.629 188.214 533.67C188.214 536.711 206.461 571.684 206.461 571.684C206.461 571.684 210.263 595.253 208.742 599.815C207.222 604.377 211.783 621.863 211.783 621.863L202.66 632.507H211.023C211.023 632.507 220.146 627.946 220.146 625.665C220.146 623.384 218.626 607.418 217.866 600.575C217.105 593.733 217.105 569.403 218.626 561.04C219.859 554.257 219.592 538.469 219.447 529.907C219.413 527.914 219.386 526.312 219.386 525.307C219.386 519.985 219.023 507.948 219.023 507.948Z" fill="#3F3D56"/>
<path d="M219.023 507.948C219.023 507.948 208.742 513.142 207.982 516.183C207.222 519.224 193.536 525.307 193.536 525.307C193.536 525.307 188.214 530.629 188.214 533.67C188.214 536.711 206.461 571.684 206.461 571.684C206.461 571.684 210.263 595.253 208.742 599.815C207.222 604.377 211.783 621.863 211.783 621.863L202.66 632.507H211.023C211.023 632.507 220.146 627.946 220.146 625.665C220.146 623.384 218.626 607.418 217.866 600.575C217.105 593.733 217.105 569.403 218.626 561.04C219.859 554.257 219.592 538.469 219.447 529.907C219.413 527.914 219.386 526.312 219.386 525.307C219.386 519.985 219.023 507.948 219.023 507.948Z" stroke="#BDE9CD"/>
<path d="M242.575 496.403C242.575 496.403 245.996 497.176 255.88 500.217C265.764 503.259 280.969 507.82 286.291 513.902C290.027 518.401 293.336 523.237 296.175 528.348L293.134 583.089C293.134 583.089 299.216 594.493 298.456 600.575C297.696 606.658 291.613 607.418 296.175 620.343C300.737 633.268 309.86 644.672 301.497 646.193C293.134 647.713 271.086 642.391 261.202 645.432C251.318 648.474 239.914 634.028 239.914 634.028C239.914 634.028 255.12 635.549 252.839 629.466C250.558 623.384 225.468 554.958 230.79 539.752C236.112 524.547 242.575 496.403 242.575 496.403Z" fill="#3F3D56"/>
<path d="M192.016 529.869L188.214 532.91C188.214 532.91 177.57 570.924 180.611 574.726C183.652 578.527 207.982 586.89 209.502 581.568C211.023 576.246 192.016 529.869 192.016 529.869Z" fill="#3F3D56"/>
<path d="M192.016 529.869L188.214 532.91C188.214 532.91 177.57 570.924 180.611 574.726C183.652 578.527 207.982 586.89 209.502 581.568C211.023 576.246 192.016 529.869 192.016 529.869Z" stroke="#BDE9CD"/>
<path d="M304.234 556.765C304.234 556.765 315.638 589.457 315.638 598.581C315.638 607.704 314.118 660.924 314.118 660.924C314.118 660.924 313.358 683.733 297.391 674.61C281.425 665.486 297.391 659.404 297.391 659.404C297.391 659.404 296.631 599.341 290.549 590.978C284.467 582.615 282.186 570.45 282.186 570.45L304.234 556.765Z" fill="#EEBB99"/>
<path d="M179.851 792.928C179.851 792.928 168.447 786.846 166.166 791.408C163.885 795.969 151.72 821.059 153.241 824.1C154.762 827.141 163.125 839.306 173.009 836.265C182.892 833.224 183.653 817.258 183.653 817.258L184.413 799.011L179.851 792.928Z" fill="#2F2E41"/>
<path d="M210.821 475.333C212.497 476.122 214.485 476.593 215.538 478.117C216.318 479.246 216.396 480.714 216.965 481.963C217.587 483.199 218.656 484.152 219.956 484.627C221.256 485.103 222.688 485.065 223.96 484.521C224.271 483.006 225.152 481.669 226.42 480.785C227.061 480.363 227.82 480.159 228.586 480.201C229.351 480.243 230.083 480.529 230.674 481.018C232.241 482.512 231.686 485.118 232.418 487.155C233.104 488.589 234.049 489.884 235.204 490.976C236.868 492.896 238.194 495.148 240.198 496.71C242.202 498.272 245.241 498.949 247.232 497.37C248.906 496.043 249.253 493.594 248.846 491.496C248.44 489.399 247.431 487.467 246.863 485.408C245.015 478.716 247.961 471.572 247.049 464.69C245.882 455.871 238.386 448.906 230.02 445.883C226.539 444.465 222.728 444.061 219.027 444.718C215.201 445.572 211.932 448.008 208.268 449.401C204.349 450.891 200.088 451.151 195.988 452.022C191.887 452.893 187.667 454.577 185.287 458.028C183.628 460.435 183.057 463.425 181.682 466.005C180.098 468.95 177.534 471.248 174.433 472.499L178.768 472.252C178.041 474.187 176.856 475.917 175.314 477.293C177.347 477.708 179.46 477.428 181.315 476.5C181.281 477.391 181.065 478.266 180.681 479.07C180.296 479.874 179.75 480.591 179.077 481.176C182.413 481.076 185.931 480.922 188.749 479.135C190.13 478.26 191.256 477.041 192.555 476.049C195.324 473.934 198.759 472.931 202.109 471.969C203.867 471.465 205.984 470.763 207.574 471.894C208.899 472.836 209.108 474.527 210.821 475.333Z" fill="#232323"/>
<path d="M284.771 519.224L296.175 528.348L311.381 563.321C311.381 563.321 290.093 580.048 284.771 577.767C279.449 575.486 270.325 535.191 270.325 535.191L284.771 519.224Z" fill="#3F3D56"/>
<path d="M171.411 554.546L171.22 555.944L170.042 564.567L168.113 578.689L167.63 582.225C167.594 582.495 167.46 582.742 167.255 582.921C167.05 583.101 166.787 583.199 166.514 583.199H153.651C153.379 583.199 153.116 583.101 152.911 582.922C152.706 582.744 152.572 582.497 152.535 582.228L152.044 578.689L150.082 564.567L148.883 555.937L148.691 554.549C148.668 554.389 148.681 554.227 148.727 554.073C148.772 553.918 148.851 553.775 148.957 553.654C149.062 553.532 149.193 553.435 149.339 553.368C149.486 553.302 149.645 553.267 149.806 553.267H170.295C170.455 553.267 170.614 553.302 170.761 553.368C170.907 553.435 171.037 553.532 171.143 553.653C171.249 553.774 171.328 553.917 171.374 554.071C171.42 554.225 171.432 554.387 171.411 554.546Z" fill="url(#paint3_linear)"/>
<path d="M169.004 549.526H151.164C150.541 549.526 150.037 550.03 150.037 550.652V552.14C150.037 552.763 150.541 553.267 151.164 553.267H169.004C169.626 553.267 170.13 552.763 170.13 552.14V550.652C170.13 550.03 169.626 549.526 169.004 549.526Z" fill="#2F2E41"/>
<path d="M173.022 555.138C164.422 556.077 155.745 556.077 147.145 555.138C146.997 555.138 146.85 555.109 146.714 555.052C146.577 554.995 146.453 554.912 146.348 554.808C146.244 554.703 146.161 554.579 146.104 554.442C146.047 554.306 146.018 554.159 146.018 554.011V552.523C146.018 552.224 146.137 551.938 146.348 551.726C146.56 551.515 146.846 551.396 147.145 551.396C155.738 552.453 164.429 552.453 173.022 551.396C173.321 551.396 173.608 551.515 173.819 551.726C174.03 551.938 174.149 552.224 174.149 552.523V554.011C174.149 554.31 174.03 554.597 173.819 554.808C173.608 555.019 173.321 555.138 173.022 555.138Z" fill="#2F2E41"/>
<path d="M168.643 578.176H151.322C151.167 578.176 151.016 578.12 150.898 578.019C150.78 577.918 150.701 577.779 150.677 577.625L148.806 565.836C148.791 565.743 148.797 565.648 148.822 565.557C148.848 565.466 148.893 565.381 148.954 565.31C149.015 565.238 149.092 565.18 149.177 565.141C149.263 565.101 149.357 565.081 149.451 565.081H170.639C170.734 565.081 170.828 565.101 170.914 565.141C171 565.181 171.077 565.24 171.138 565.312C171.199 565.385 171.244 565.47 171.269 565.562C171.294 565.653 171.299 565.749 171.283 565.843L169.287 577.632C169.261 577.784 169.182 577.922 169.065 578.022C168.947 578.121 168.797 578.176 168.643 578.176Z" fill="#2F2E41"/>
<g filter="url(#filter15_i)">
<path d="M653.963 578H418.341C416.226 578 414.18 577.263 412.571 575.921C410.963 574.58 409.897 572.722 409.565 570.682L384.11 414.04C383.908 412.801 383.985 411.534 384.333 410.326C384.681 409.118 385.294 407.998 386.128 407.044C386.962 406.089 387.998 405.323 389.165 404.797C390.332 404.272 391.601 404 392.886 404H681.115C682.407 404 683.684 404.275 684.856 404.807C686.028 405.339 687.068 406.113 687.902 407.078C688.736 408.042 689.345 409.173 689.686 410.391C690.026 411.608 690.091 412.884 689.875 414.128L662.723 570.77C662.372 572.792 661.301 574.627 659.697 575.951C658.093 577.274 656.062 578 653.963 578Z" fill="url(#paint4_linear)"/>
</g>
</g>
<defs>
<filter id="filter0_d" x="-4" y="94" width="994" height="580" filterUnits="userSpaceOnUse" color-interpolation-filters="sRGB">
<feFlood flood-opacity="0" result="BackgroundImageFix"/>
<feColorMatrix in="SourceAlpha" type="matrix" values="0 0 0 0 0 0 0 0 0 0 0 0 0 0 0 0 0 0 127 0"/>
<feOffset dx="4" dy="4"/>
<feGaussianBlur stdDeviation="4"/>
<feColorMatrix type="matrix" values="0 0 0 0 0.295833 0 0 0 0 0.295833 0 0 0 0 0.295833 0 0 0 0.25 0"/>
<feBlend mode="normal" in2="BackgroundImageFix" result="effect1_dropShadow"/>
<feBlend mode="normal" in="SourceGraphic" in2="effect1_dropShadow" result="shape"/>
</filter>
<filter id="filter1_i" x="295" y="353" width="31.6145" height="22.4154" filterUnits="userSpaceOnUse" color-interpolation-filters="sRGB">
<feFlood flood-opacity="0" result="BackgroundImageFix"/>
<feBlend mode="normal" in="SourceGraphic" in2="BackgroundImageFix" result="shape"/>
<feColorMatrix in="SourceAlpha" type="matrix" values="0 0 0 0 0 0 0 0 0 0 0 0 0 0 0 0 0 0 127 0" result="hardAlpha"/>
<feOffset dx="4" dy="4"/>
<feGaussianBlur stdDeviation="4"/>
<feComposite in2="hardAlpha" operator="arithmetic" k2="-1" k3="1"/>
<feColorMatrix type="matrix" values="0 0 0 0 0.3875 0 0 0 0 0.3875 0 0 0 0 0.3875 0 0 0 0.25 0"/>
<feBlend mode="normal" in2="shape" result="effect1_innerShadow"/>
</filter>
<filter id="filter2_i" x="729.559" y="434.17" width="38.9821" height="21.0379" filterUnits="userSpaceOnUse" color-interpolation-filters="sRGB">
<feFlood flood-opacity="0" result="BackgroundImageFix"/>
<feBlend mode="normal" in="SourceGraphic" in2="BackgroundImageFix" result="shape"/>
<feColorMatrix in="SourceAlpha" type="matrix" values="0 0 0 0 0 0 0 0 0 0 0 0 0 0 0 0 0 0 127 0" result="hardAlpha"/>
<feOffset dx="4" dy="4"/>
<feGaussianBlur stdDeviation="4"/>
<feComposite in2="hardAlpha" operator="arithmetic" k2="-1" k3="1"/>
<feColorMatrix type="matrix" values="0 0 0 0 0.3875 0 0 0 0 0.3875 0 0 0 0 0.3875 0 0 0 0.25 0"/>
<feBlend mode="normal" in2="shape" result="effect1_innerShadow"/>
</filter>
<filter id="filter3_i" x="302" y="401" width="42.8145" height="32.8223" filterUnits="userSpaceOnUse" color-interpolation-filters="sRGB">
<feFlood flood-opacity="0" result="BackgroundImageFix"/>
<feBlend mode="normal" in="SourceGraphic" in2="BackgroundImageFix" result="shape"/>
<feColorMatrix in="SourceAlpha" type="matrix" values="0 0 0 0 0 0 0 0 0 0 0 0 0 0 0 0 0 0 127 0" result="hardAlpha"/>
<feOffset dx="4" dy="4"/>
<feGaussianBlur stdDeviation="4"/>
<feComposite in2="hardAlpha" operator="arithmetic" k2="-1" k3="1"/>
<feColorMatrix type="matrix" values="0 0 0 0 0.3875 0 0 0 0 0.3875 0 0 0 0 0.3875 0 0 0 0.25 0"/>
<feBlend mode="normal" in2="shape" result="effect1_innerShadow"/>
</filter>
<filter id="filter4_i" x="706.375" y="407.05" width="30.8496" height="32.1742" filterUnits="userSpaceOnUse" color-interpolation-filters="sRGB">
<feFlood flood-opacity="0" result="BackgroundImageFix"/>
<feBlend mode="normal" in="SourceGraphic" in2="BackgroundImageFix" result="shape"/>
<feColorMatrix in="SourceAlpha" type="matrix" values="0 0 0 0 0 0 0 0 0 0 0 0 0 0 0 0 0 0 127 0" result="hardAlpha"/>
<feOffset dx="4" dy="4"/>
<feGaussianBlur stdDeviation="4"/>
<feComposite in2="hardAlpha" operator="arithmetic" k2="-1" k3="1"/>
<feColorMatrix type="matrix" values="0 0 0 0 0.3875 0 0 0 0 0.3875 0 0 0 0 0.3875 0 0 0 0.25 0"/>
<feBlend mode="normal" in2="shape" result="effect1_innerShadow"/>
</filter>
<filter id="filter5_i" x="692.411" y="352.882" width="33.4244" height="29.4727" filterUnits="userSpaceOnUse" color-interpolation-filters="sRGB">
<feFlood flood-opacity="0" result="BackgroundImageFix"/>
<feBlend mode="normal" in="SourceGraphic" in2="BackgroundImageFix" result="shape"/>
<feColorMatrix in="SourceAlpha" type="matrix" values="0 0 0 0 0 0 0 0 0 0 0 0 0 0 0 0 0 0 127 0" result="hardAlpha"/>
<feOffset dx="4" dy="4"/>
<feGaussianBlur stdDeviation="4"/>
<feComposite in2="hardAlpha" operator="arithmetic" k2="-1" k3="1"/>
<feColorMatrix type="matrix" values="0 0 0 0 0.3875 0 0 0 0 0.3875 0 0 0 0 0.3875 0 0 0 0.25 0"/>
<feBlend mode="normal" in2="shape" result="effect1_innerShadow"/>
</filter>
<filter id="filter6_i" x="723.952" y="358.608" width="23.8692" height="37.4609" filterUnits="userSpaceOnUse" color-interpolation-filters="sRGB">
<feFlood flood-opacity="0" result="BackgroundImageFix"/>
<feBlend mode="normal" in="SourceGraphic" in2="BackgroundImageFix" result="shape"/>
<feColorMatrix in="SourceAlpha" type="matrix" values="0 0 0 0 0 0 0 0 0 0 0 0 0 0 0 0 0 0 127 0" result="hardAlpha"/>
<feOffset dx="4" dy="4"/>
<feGaussianBlur stdDeviation="4"/>
<feComposite in2="hardAlpha" operator="arithmetic" k2="-1" k3="1"/>
<feColorMatrix type="matrix" values="0 0 0 0 0.3875 0 0 0 0 0.3875 0 0 0 0 0.3875 0 0 0 0.25 0"/>
<feBlend mode="normal" in2="shape" result="effect1_innerShadow"/>
</filter>
<filter id="filter7_i" x="339.251" y="384.462" width="36.4069" height="25.5467" filterUnits="userSpaceOnUse" color-interpolation-filters="sRGB">
<feFlood flood-opacity="0" result="BackgroundImageFix"/>
<feBlend mode="normal" in="SourceGraphic" in2="BackgroundImageFix" result="shape"/>
<feColorMatrix in="SourceAlpha" type="matrix" values="0 0 0 0 0 0 0 0 0 0 0 0 0 0 0 0 0 0 127 0" result="hardAlpha"/>
<feOffset dx="4" dy="4"/>
<feGaussianBlur stdDeviation="4"/>
<feComposite in2="hardAlpha" operator="arithmetic" k2="-1" k3="1"/>
<feColorMatrix type="matrix" values="0 0 0 0 0.3875 0 0 0 0 0.3875 0 0 0 0 0.3875 0 0 0 0.25 0"/>
<feBlend mode="normal" in2="shape" result="effect1_innerShadow"/>
</filter>
<filter id="filter8_i" x="340.753" y="464.414" width="30.1342" height="32.8388" filterUnits="userSpaceOnUse" color-interpolation-filters="sRGB">
<feFlood flood-opacity="0" result="BackgroundImageFix"/>
<feBlend mode="normal" in="SourceGraphic" in2="BackgroundImageFix" result="shape"/>
<feColorMatrix in="SourceAlpha" type="matrix" values="0 0 0 0 0 0 0 0 0 0 0 0 0 0 0 0 0 0 127 0" result="hardAlpha"/>
<feOffset dx="4" dy="4"/>
<feGaussianBlur stdDeviation="4"/>
<feComposite in2="hardAlpha" operator="arithmetic" k2="-1" k3="1"/>
<feColorMatrix type="matrix" values="0 0 0 0 0.3875 0 0 0 0 0.3875 0 0 0 0 0.3875 0 0 0 0.25 0"/>
<feBlend mode="normal" in2="shape" result="effect1_innerShadow"/>
</filter>
<filter id="filter9_i" x="312.51" y="492.858" width="37.5903" height="23.6497" filterUnits="userSpaceOnUse" color-interpolation-filters="sRGB">
<feFlood flood-opacity="0" result="BackgroundImageFix"/>
<feBlend mode="normal" in="SourceGraphic" in2="BackgroundImageFix" result="shape"/>
<feColorMatrix in="SourceAlpha" type="matrix" values="0 0 0 0 0 0 0 0 0 0 0 0 0 0 0 0 0 0 127 0" result="hardAlpha"/>
<feOffset dx="4" dy="4"/>
<feGaussianBlur stdDeviation="4"/>
<feComposite in2="hardAlpha" operator="arithmetic" k2="-1" k3="1"/>
<feColorMatrix type="matrix" values="0 0 0 0 0.3875 0 0 0 0 0.3875 0 0 0 0 0.3875 0 0 0 0.25 0"/>
<feBlend mode="normal" in2="shape" result="effect1_innerShadow"/>
</filter>
<filter id="filter10_i" x="722.063" y="302.826" width="25.9286" height="15.5594" filterUnits="userSpaceOnUse" color-interpolation-filters="sRGB">
<feFlood flood-opacity="0" result="BackgroundImageFix"/>
<feBlend mode="normal" in="SourceGraphic" in2="BackgroundImageFix" result="shape"/>
<feColorMatrix in="SourceAlpha" type="matrix" values="0 0 0 0 0 0 0 0 0 0 0 0 0 0 0 0 0 0 127 0" result="hardAlpha"/>
<feOffset dx="4" dy="4"/>
<feGaussianBlur stdDeviation="4"/>
<feComposite in2="hardAlpha" operator="arithmetic" k2="-1" k3="1"/>
<feColorMatrix type="matrix" values="0 0 0 0 0.3875 0 0 0 0 0.3875 0 0 0 0 0.3875 0 0 0 0.25 0"/>
<feBlend mode="normal" in2="shape" result="effect1_innerShadow"/>
</filter>
<filter id="filter11_i" x="372.415" y="222.5" width="338.214" height="442" filterUnits="userSpaceOnUse" color-interpolation-filters="sRGB">
<feFlood flood-opacity="0" result="BackgroundImageFix"/>
<feBlend mode="normal" in="SourceGraphic" in2="BackgroundImageFix" result="shape"/>
<feColorMatrix in="SourceAlpha" type="matrix" values="0 0 0 0 0 0 0 0 0 0 0 0 0 0 0 0 0 0 127 0" result="hardAlpha"/>
<feOffset dx="10" dy="-10"/>
<feGaussianBlur stdDeviation="15"/>
<feComposite in2="hardAlpha" operator="arithmetic" k2="-1" k3="1"/>
<feColorMatrix type="matrix" values="0 0 0 0 0.170833 0 0 0 0 0.170833 0 0 0 0 0.170833 0 0 0 0.2 0"/>
<feBlend mode="normal" in2="shape" result="effect1_innerShadow"/>
</filter>
<filter id="filter12_i" x="392.001" y="178.5" width="294" height="58" filterUnits="userSpaceOnUse" color-interpolation-filters="sRGB">
<feFlood flood-opacity="0" result="BackgroundImageFix"/>
<feBlend mode="normal" in="SourceGraphic" in2="BackgroundImageFix" result="shape"/>
<feColorMatrix in="SourceAlpha" type="matrix" values="0 0 0 0 0 0 0 0 0 0 0 0 0 0 0 0 0 0 127 0" result="hardAlpha"/>
<feOffset dx="4" dy="4"/>
<feGaussianBlur stdDeviation="2"/>
<feComposite in2="hardAlpha" operator="arithmetic" k2="-1" k3="1"/>
<feColorMatrix type="matrix" values="0 0 0 0 1 0 0 0 0 1 0 0 0 0 1 0 0 0 0.25 0"/>
<feBlend mode="normal" in2="shape" result="effect1_innerShadow"/>
</filter>
<filter id="filter13_i" x="334.001" y="205.5" width="414" height="64.1614" filterUnits="userSpaceOnUse" color-interpolation-filters="sRGB">
<feFlood flood-opacity="0" result="BackgroundImageFix"/>
<feBlend mode="normal" in="SourceGraphic" in2="BackgroundImageFix" result="shape"/>
<feColorMatrix in="SourceAlpha" type="matrix" values="0 0 0 0 0 0 0 0 0 0 0 0 0 0 0 0 0 0 127 0" result="hardAlpha"/>
<feOffset dx="8"/>
<feGaussianBlur stdDeviation="4"/>
<feComposite in2="hardAlpha" operator="arithmetic" k2="-1" k3="1"/>
<feColorMatrix type="matrix" values="0 0 0 0 1 0 0 0 0 1 0 0 0 0 1 0 0 0 0.25 0"/>
<feBlend mode="normal" in2="shape" result="effect1_innerShadow"/>
</filter>
<filter id="filter14_d" x="118.501" y="660.5" width="707" height="17" filterUnits="userSpaceOnUse" color-interpolation-filters="sRGB">
<feFlood flood-opacity="0" result="BackgroundImageFix"/>
<feColorMatrix in="SourceAlpha" type="matrix" values="0 0 0 0 0 0 0 0 0 0 0 0 0 0 0 0 0 0 127 0"/>
<feOffset dy="4"/>
<feGaussianBlur stdDeviation="4"/>
<feColorMatrix type="matrix" values="0 0 0 0 0.604167 0 0 0 0 0.604167 0 0 0 0 0.604167 0 0 0 0.2 0"/>
<feBlend mode="normal" in2="BackgroundImageFix" result="effect1_dropShadow"/>
<feBlend mode="normal" in="SourceGraphic" in2="effect1_dropShadow" result="shape"/>
</filter>
<filter id="filter15_i" x="384" y="404" width="314" height="174" filterUnits="userSpaceOnUse" color-interpolation-filters="sRGB">
<feFlood flood-opacity="0" result="BackgroundImageFix"/>
<feBlend mode="normal" in="SourceGraphic" in2="BackgroundImageFix" result="shape"/>
<feColorMatrix in="SourceAlpha" type="matrix" values="0 0 0 0 0 0 0 0 0 0 0 0 0 0 0 0 0 0 127 0" result="hardAlpha"/>
<feOffset dx="8"/>
<feGaussianBlur stdDeviation="5"/>
<feComposite in2="hardAlpha" operator="arithmetic" k2="-1" k3="1"/>
<feColorMatrix type="matrix" values="0 0 0 0 0.95 0 0 0 0 0.95 0 0 0 0 0.95 0 0 0 0.25 0"/>
<feBlend mode="normal" in2="shape" result="effect1_innerShadow"/>
</filter>
<linearGradient id="paint0_linear" x1="914" y1="627" x2="70.1224" y2="202.756" gradientUnits="userSpaceOnUse">
<stop stop-color="white"/>
<stop offset="1" stop-color="#F9F9F9"/>
</linearGradient>
<linearGradient id="paint1_linear" x1="361.5" y1="254" x2="646.5" y2="678.5" gradientUnits="userSpaceOnUse">
<stop stop-color="white"/>
<stop offset="1" stop-color="#AFAFAF"/>
</linearGradient>
<linearGradient id="paint2_linear" x1="339.5" y1="215" x2="740" y2="259.5" gradientUnits="userSpaceOnUse">
<stop stop-color="#4D4D5A"/>
<stop offset="1" stop-color="#2F2E41"/>
</linearGradient>
<linearGradient id="paint3_linear" x1="145.5" y1="555.5" x2="167" y2="586" gradientUnits="userSpaceOnUse">
<stop stop-color="white"/>
<stop offset="1" stop-color="#AFAFAF"/>
</linearGradient>
<linearGradient id="paint4_linear" x1="384" y1="421" x2="664.5" y2="585" gradientUnits="userSpaceOnUse">
<stop stop-color="#3F3F4F"/>
<stop offset="1" stop-color="#2F2E41"/>
</linearGradient>
<clipPath id="clip0">
<rect width="995.001" height="836.749" fill="white"/>
</clipPath>
</defs>
</svg>
